# Tiled2Unity generated file. Do not modify by hand.
# Wavefront file for 'Map1_mesh_0001.obj'

# Vertices (Count = 172)
v -4 -10 0
v -5 -10 0
v -5 -9 0
v -4 -9 0
v -5 -10 0
v -6 -10 0
v -6 -9 0
v -5 -9 0
v -6 -10 0
v -7 -10 0
v -7 -9 0
v -6 -9 0
v 0 -11 0
v -1 -11 0
v -1 -10 0
v 0 -10 0
v -1 -11 0
v -2 -11 0
v -2 -10 0
v -1 -10 0
v -2 -11 0
v -3 -11 0
v -3 -10 0
v -2 -10 0
v -3 -11 0
v -4 -11 0
v -4 -10 0
v -3 -10 0
v -4 -11 0
v -5 -11 0
v -5 -10 0
v -4 -10 0
v -5 -11 0
v -6 -11 0
v -6 -10 0
v -5 -10 0
v -6 -11 0
v -7 -11 0
v -7 -10 0
v -6 -10 0
v -7 -11 0
v -8 -11 0
v -8 -10 0
v -7 -10 0
v -8 -11 0
v -9 -11 0
v -9 -10 0
v -8 -10 0
v -9 -11 0
v -10 -11 0
v -10 -10 0
v -9 -10 0
v -10 -11 0
v -11 -11 0
v -11 -10 0
v -10 -10 0
v -11 -11 0
v -12 -11 0
v -12 -10 0
v -11 -10 0
v -12 -11 0
v -13 -11 0
v -13 -10 0
v -12 -10 0
v -13 -11 0
v -14 -11 0
v -14 -10 0
v -13 -10 0
v -14 -11 0
v -15 -11 0
v -15 -10 0
v -14 -10 0
v -15 -11 0
v -16 -11 0
v -16 -10 0
v -15 -10 0
v -16 -11 0
v -17 -11 0
v -17 -10 0
v -16 -10 0
v -17 -11 0
v -18 -11 0
v -18 -10 0
v -17 -10 0
v -18 -11 0
v -19 -11 0
v -19 -10 0
v -18 -10 0
v -19 -11 0
v -20 -11 0
v -20 -10 0
v -19 -10 0
v 0 -12 0
v -1 -12 0
v -1 -11 0
v 0 -11 0
v -1 -12 0
v -2 -12 0
v -2 -11 0
v -1 -11 0
v -2 -12 0
v -3 -12 0
v -3 -11 0
v -2 -11 0
v -3 -12 0
v -4 -12 0
v -4 -11 0
v -3 -11 0
v -4 -12 0
v -5 -12 0
v -5 -11 0
v -4 -11 0
v -5 -12 0
v -6 -12 0
v -6 -11 0
v -5 -11 0
v -6 -12 0
v -7 -12 0
v -7 -11 0
v -6 -11 0
v -7 -12 0
v -8 -12 0
v -8 -11 0
v -7 -11 0
v -8 -12 0
v -9 -12 0
v -9 -11 0
v -8 -11 0
v -9 -12 0
v -10 -12 0
v -10 -11 0
v -9 -11 0
v -10 -12 0
v -11 -12 0
v -11 -11 0
v -10 -11 0
v -11 -12 0
v -12 -12 0
v -12 -11 0
v -11 -11 0
v -12 -12 0
v -13 -12 0
v -13 -11 0
v -12 -11 0
v -13 -12 0
v -14 -12 0
v -14 -11 0
v -13 -11 0
v -14 -12 0
v -15 -12 0
v -15 -11 0
v -14 -11 0
v -15 -12 0
v -16 -12 0
v -16 -11 0
v -15 -11 0
v -16 -12 0
v -17 -12 0
v -17 -11 0
v -16 -11 0
v -17 -12 0
v -18 -12 0
v -18 -11 0
v -17 -11 0
v -18 -12 0
v -19 -12 0
v -19 -11 0
v -18 -11 0
v -19 -12 0
v -20 -12 0
v -20 -11 0
v -19 -11 0

# Texture cooridinates (Count = 21)
vt 0 0.5
vt 0.2 0.5
vt 0.2 0.75
vt 0 0.75
vt 0.4 0.75
vt 0.6 0.75
vt 0.6 1
vt 0.4 1
vt 0.4 0.5
vt 0.2 0.25
vt 0.4 0.25
vt 0.2 1
vt 0 1
vt 0.6 0.5
vt 0.8 0.5
vt 0.8 0.75
vt 0 0.25
vt 0.8 0
vt 1 0
vt 1 0.25
vt 0.8 0.25

# Normal
vn 0 0 -1

# Mesh description
g Map1_mesh_0001

# Faces
f 1/1/1 2/2/1 3/3/1 4/4/1
f 5/5/1 6/6/1 7/7/1 8/8/1
f 9/2/1 10/9/1 11/5/1 12/3/1
f 13/10/1 14/11/1 15/9/1 16/2/1
f 17/5/1 18/6/1 19/7/1 20/8/1
f 21/5/1 22/6/1 23/7/1 24/8/1
f 25/5/1 26/6/1 27/7/1 28/8/1
f 29/4/1 30/3/1 31/12/1 32/13/1
f 33/14/1 34/15/1 35/16/1 36/6/1
f 37/3/1 38/5/1 39/8/1 40/12/1
f 41/5/1 42/6/1 43/7/1 44/8/1
f 45/5/1 46/6/1 47/7/1 48/8/1
f 49/5/1 50/6/1 51/7/1 52/8/1
f 53/5/1 54/6/1 55/7/1 56/8/1
f 57/5/1 58/6/1 59/7/1 60/8/1
f 61/5/1 62/6/1 63/7/1 64/8/1
f 65/5/1 66/6/1 67/7/1 68/8/1
f 69/5/1 70/6/1 71/7/1 72/8/1
f 73/5/1 74/6/1 75/7/1 76/8/1
f 77/5/1 78/6/1 79/7/1 80/8/1
f 81/5/1 82/6/1 83/7/1 84/8/1
f 85/5/1 86/6/1 87/7/1 88/8/1
f 89/17/1 90/10/1 91/2/1 92/1/1
f 93/14/1 94/15/1 95/16/1 96/6/1
f 97/14/1 98/15/1 99/16/1 100/6/1
f 101/14/1 102/15/1 103/16/1 104/6/1
f 105/14/1 106/15/1 107/16/1 108/6/1
f 109/14/1 110/15/1 111/16/1 112/6/1
f 113/18/1 114/19/1 115/20/1 116/21/1
f 117/14/1 118/15/1 119/16/1 120/6/1
f 121/14/1 122/15/1 123/16/1 124/6/1
f 125/14/1 126/15/1 127/16/1 128/6/1
f 129/14/1 130/15/1 131/16/1 132/6/1
f 133/14/1 134/15/1 135/16/1 136/6/1
f 137/14/1 138/15/1 139/16/1 140/6/1
f 141/14/1 142/15/1 143/16/1 144/6/1
f 145/14/1 146/15/1 147/16/1 148/6/1
f 149/14/1 150/15/1 151/16/1 152/6/1
f 153/14/1 154/15/1 155/16/1 156/6/1
f 157/14/1 158/15/1 159/16/1 160/6/1
f 161/14/1 162/15/1 163/16/1 164/6/1
f 165/14/1 166/15/1 167/16/1 168/6/1
f 169/14/1 170/15/1 171/16/1 172/6/1

